<svg id="Layer_1" data-name="Layer 1" xmlns="http://www.w3.org/2000/svg" viewBox="0 0 32 36"><defs><style>.cls-1{fill:#dbdcdd;}</style></defs><title>Behance</title><path class="cls-1" d="M16,36,0,27V9L16,0,32,9V27ZM1.94,25.91,16,33.78l14.06-7.87V10.09L16,2.22,1.94,10.09Z"/><path class="cls-1" d="M12.94,21.38a2.58,2.58,0,0,1-1.16.21H9V18.54h2.84a3,3,0,0,1,1.15.19A1.22,1.22,0,0,1,13.7,20a1.42,1.42,0,0,1-.76,1.42M9,14.13h2.51a4.35,4.35,0,0,1,1.36.18,1,1,0,0,1,.62,1,1.07,1.07,0,0,1-.47,1,2.32,2.32,0,0,1-1.22.29H9Zm5.37,3.31a2.91,2.91,0,0,0,.88-.65,2.52,2.52,0,0,0,.53-1.68,2.86,2.86,0,0,0-.53-1.75,3.53,3.53,0,0,0-3-1.22H6.69V23.57h5.18a7.57,7.57,0,0,0,1.63-.16,3.13,3.13,0,0,0,1.3-.57,3.08,3.08,0,0,0,.82-.9,3.33,3.33,0,0,0,.51-1.82,3,3,0,0,0-.45-1.67,2.55,2.55,0,0,0-1.33-1"/><rect class="cls-1" x="18.59" y="12.68" width="4.93" height="1.42"/><path class="cls-1" d="M19.16,18.51a2.32,2.32,0,0,1,.6-1.31,1.78,1.78,0,0,1,1.33-.48,2,2,0,0,1,1.32.45A1.87,1.87,0,0,1,23,18.51Zm6.07-.22a4.08,4.08,0,0,0-.67-1.75,3.53,3.53,0,0,0-1.47-1.25,4.81,4.81,0,0,0-2-.39,4.12,4.12,0,0,0-3,1.17,4.56,4.56,0,0,0-1.17,3.37,4.06,4.06,0,0,0,1.3,3.38,4.66,4.66,0,0,0,3,1,4.15,4.15,0,0,0,3.2-1.23,2.76,2.76,0,0,0,.82-1.53H22.92a1.71,1.71,0,0,1-.46.58,1.87,1.87,0,0,1-1.23.39A2.3,2.3,0,0,1,20,21.75,2,2,0,0,1,19.11,20h6.2a9.49,9.49,0,0,0-.08-1.67"/></svg>