<svg id="Layer_2" data-name="Layer 2" xmlns="http://www.w3.org/2000/svg" viewBox="0 0 32 36"><defs><style>.cls-1{fill:#dbdcdd;}</style></defs><title>GitHub</title><path class="cls-1" d="M16,36,0,27V9L16,0,32,9V27ZM1.94,25.91,16,33.78l14.06-7.87V10.09L16,2.22,1.94,10.09Z"/><path class="cls-1" d="M15.94,9.51A8.9,8.9,0,0,0,13.19,26.8c.44.08.59-.19.59-.43s0-.76,0-1.5c-2.42.53-2.93-1.19-2.93-1.19a2.34,2.34,0,0,0-1-1.3c-.79-.55.06-.54.06-.54a1.82,1.82,0,0,1,1.33.91,1.84,1.84,0,0,0,2.54.74,2,2,0,0,1,.55-1.19c-1.93-.22-4-1-4-4.38a3.45,3.45,0,0,1,.9-2.38,3.23,3.23,0,0,1,.09-2.35s.73-.24,2.39.91a8.11,8.11,0,0,1,4.37,0c1.66-1.15,2.39-.91,2.39-.91a3.23,3.23,0,0,1,.09,2.35,3.44,3.44,0,0,1,.89,2.38c0,3.41-2,4.16-4,4.38a2.09,2.09,0,0,1,.6,1.64c0,1.19,0,2.14,0,2.43s.15.52.6.43A8.9,8.9,0,0,0,15.94,9.51"/></svg>