<svg id="Layer_3" data-name="Layer 3" xmlns="http://www.w3.org/2000/svg" viewBox="0 0 32 36"><defs><style>.cls-1{fill:#dbdcdd;}</style></defs><title>Linkedin</title><path class="cls-1" d="M16,36,0,27V9L16,0,32,9V27ZM1.94,25.91,16,33.78l14.06-7.87V10.09L16,2.22,1.94,10.09Z"/><rect class="cls-1" x="8.17" y="15.31" width="3.37" height="10.73"/><path class="cls-1" d="M9.86,13.82a1.94,1.94,0,1,1,1.94-1.93A1.9,1.9,0,0,1,9.86,13.82Z"/><path class="cls-1" d="M24,26.05H20.6V20.19c0-1.73-.73-2.26-1.68-2.26a2,2,0,0,0-2,2.3v5.82H13.57V15.32h3.24v1.49h.05A3.66,3.66,0,0,1,20.06,15c1.88,0,3.92,1.12,3.92,4.4Z"/></svg>